# xmcd CD database file
#
# Track frame offsets:
#	150
#	18777
#	37032
#	55880
#	92250
#	115167
#	136987
#	155365
#
# Disc length: 2374 seconds
#
# Revision: 0
# Processed by: cddbd v1.5.1PL0 Copyright (c) Steve Scherf et al.
# Submitted via: CDex 1.51
#
DISCID=58094408
DTITLE=Jon Lord - Before I Forget
DYEAR=1982
DGENRE=Progressive Rock
TTITLE0=Chance On A Feeling
TTITLE1=Tender Babes
TTITLE2=Hollywood Rock And Roll
TTITLE3=Bach Onto This
TTITLE4=Before I Forget
TTITLE5=Say It's All Right
TTITLE6=Burntwood
TTITLE7=Where Are You
EXTD=YEAR: 1982
EXTT0=
EXTT1=
EXTT2=
EXTT3=
EXTT4=
EXTT5=
EXTT6=
EXTT7=
PLAYORDER=
